<svg xmlns="http://www.w3.org/2000/svg" width="48" height="48" viewBox="0 0 48 48"><defs><style>.a{fill:#e2edfd;}.b,.e,.f{fill:none;}.b,.f{stroke-miterlimit:10;}.c,.h{fill:#1374f8;}.d{opacity:0.75;}.f{stroke:#1374f8;}.g,.h{stroke:none;}</style></defs><g transform="translate(-645 -1225)"><path class="a" d="M24,0C42.783,0,48,5.484,48,24S42.783,48,24,48,0,42.516,0,24,5.217,0,24,0Z" transform="translate(645 1225)"/><g transform="translate(821.39 1134.37)"><g class="b"><path class="g" d="M-153.995,118.252l10.574-10.574a2.38,2.38,0,0,0,0-3.356,2.38,2.38,0,0,0-3.356,0L-157.35,114.9a5.334,5.334,0,0,0-5.476,1.281,5.339,5.339,0,0,0,0,7.551,5.339,5.339,0,0,0,7.551,0A5.334,5.334,0,0,0-153.995,118.252Z"/><path class="h" d="M -159.0508422851562 125.2915954589844 C -157.6843872070312 125.2915954589844 -156.3179321289062 124.7703323364258 -155.2754058837891 123.7278060913086 C -153.7938842773438 122.2462768554688 -153.3707427978516 120.1120834350586 -153.9945678710938 118.2520141601562 L -143.4204406738281 107.6778945922852 C -142.4974822998047 106.7549362182617 -142.4974822998047 105.2447509765625 -143.4204406738281 104.3219757080078 C -143.8819122314453 103.8604965209961 -144.4902038574219 103.629753112793 -145.0984649658203 103.629753112793 C -145.7067260742188 103.629753112793 -146.3149719238281 103.8604965209961 -146.7763671875 104.3219757080078 L -157.3504943847656 114.8959274291992 C -157.9036712646484 114.7104187011719 -158.4812927246094 114.6174774169922 -159.0585174560547 114.6174774169922 C -160.4224395751953 114.6174774169922 -161.7852935791016 115.1359558105469 -162.8262634277344 116.1769332885742 C -164.9113311767578 118.2619857788086 -164.9115142822266 121.6425628662109 -162.8262634277344 123.7278060913086 C -161.7837371826172 124.7703323364258 -160.4172973632812 125.2915954589844 -159.0508422851562 125.2915954589844 M -159.0508422851562 127.2916030883789 C -161.0112609863281 127.2916030883789 -162.8543090820312 126.528190612793 -164.240478515625 125.1420135498047 C -165.6267242431641 123.7557754516602 -166.3901672363281 121.9126739501953 -166.3901214599609 119.952262878418 C -166.3900909423828 117.9919128417969 -165.6266632080078 116.1489028930664 -164.2404632568359 114.7627105712891 C -162.8571014404297 113.3793411254883 -161.0167846679688 112.6174774169922 -159.0585021972656 112.6174774169922 C -158.6960296630859 112.6174774169922 -158.335693359375 112.6439361572266 -157.9795379638672 112.6965408325195 L -148.1905670166016 102.9077453613281 C -147.3666229248047 102.0836639404297 -146.2684631347656 101.629753112793 -145.0984649658203 101.629753112793 C -143.9285430908203 101.629753112793 -142.8303527832031 102.083625793457 -142.0062255859375 102.9077606201172 C -141.1821441650391 103.7316818237305 -140.7282257080078 104.8298645019531 -140.7282257080078 105.9998626708984 C -140.7282257080078 107.169792175293 -141.1820831298828 108.2679748535156 -142.0062255859375 109.0921020507812 L -151.7951812744141 118.8810424804688 C -151.6633758544922 119.7719268798828 -151.6954650878906 120.6830596923828 -151.8938140869141 121.5688705444336 C -152.1968994140625 122.9224548339844 -152.8772125244141 124.1580276489258 -153.8611907958984 125.1420135498047 C -155.2473602294922 126.528190612793 -157.0904235839844 127.2916030883789 -159.0508422851562 127.2916030883789 Z"/></g><path class="c" d="M-154.28,152.215a4.257,4.257,0,0,1-3.03-1.255,4.29,4.29,0,0,1,0-6.06,4.239,4.239,0,0,1,3.017-1.25,4.272,4.272,0,0,1,1.957.471l5.933-5.933a1.309,1.309,0,0,1,.932-.385h0a1.309,1.309,0,0,1,.932.385,1.308,1.308,0,0,1,.386.932,1.309,1.309,0,0,1-.386.932l-5.932,5.933a4.263,4.263,0,0,1-.779,4.974A4.256,4.256,0,0,1-154.28,152.215Z" transform="translate(-4.771 -27.978)"/><g class="d" transform="translate(-162.605 110.723)"><line class="e" x1="2.525" y2="2.525" transform="translate(9.419 0)"/><path class="e" d="M-146.645,165.08l-2.288,2.288a3.552,3.552,0,0,0-4.572.377,3.545,3.545,0,0,0-1.037,2.317" transform="translate(154.542 -161.033)"/></g><circle class="f" cx="1.183" cy="1.183" r="1.183" transform="translate(-144.708 114.896)"/><circle class="f" cx="0.813" cy="0.813" r="0.813" transform="translate(-142.728 111.543)"/></g></g></svg>