<svg xmlns="http://www.w3.org/2000/svg" width="48" height="48" viewBox="0 0 48 48"><defs><style>.a{fill:#e2edfd;}.b{fill:#1374f8;}</style></defs><g transform="translate(-645 -987)"><path class="a" d="M24,0C42.783,0,48,5.484,48,24S42.783,48,24,48,0,42.516,0,24,5.217,0,24,0Z" transform="translate(645 987)"/><path class="b" d="M-868.84-201a11.1,11.1,0,0,0-11.1,11.1c0,8.052,9.382,16.655,11.1,16.655s11.1-8.025,11.1-16.655A11.1,11.1,0,0,0-868.84-201Zm0,16.655a5.551,5.551,0,0,1-5.552-5.552,5.551,5.551,0,0,1,5.552-5.551,5.552,5.552,0,0,1,5.552,5.551A5.552,5.552,0,0,1-868.84-184.345Z" transform="translate(1537.404 1198.326)"/></g></svg>