<svg xmlns="http://www.w3.org/2000/svg" width="124.451" height="124.451" viewBox="0 0 124.451 124.451"><defs><style>.a{fill:#eada1f;}</style></defs><g transform="translate(-1175.549 -1381.549)"><circle class="a" cx="2" cy="2" r="2" transform="translate(1237.775 1381.549) rotate(45)"/><circle class="a" cx="2" cy="2" r="2" transform="translate(1247.674 1391.449) rotate(45)"/><circle class="a" cx="2" cy="2" r="2" transform="translate(1257.574 1401.348) rotate(45)"/><circle class="a" cx="2" cy="2" r="2" transform="translate(1267.473 1411.248) rotate(45)"/><circle class="a" cx="2" cy="2" r="2" transform="translate(1277.373 1421.147) rotate(45)"/><circle class="a" cx="2" cy="2" r="2" transform="translate(1287.272 1431.047) rotate(45)"/><circle class="a" cx="2" cy="2" r="2" transform="translate(1297.172 1440.946) rotate(45)"/><circle class="a" cx="2" cy="2" r="2" transform="translate(1227.875 1391.449) rotate(45)"/><circle class="a" cx="2" cy="2" r="2" transform="translate(1237.775 1401.348) rotate(45)"/><circle class="a" cx="2" cy="2" r="2" transform="translate(1247.674 1411.248) rotate(45)"/><circle class="a" cx="2" cy="2" r="2" transform="translate(1257.574 1421.147) rotate(45)"/><circle class="a" cx="2" cy="2" r="2" transform="translate(1267.473 1431.047) rotate(45)"/><circle class="a" cx="2" cy="2" r="2" transform="translate(1277.373 1440.946) rotate(45)"/><circle class="a" cx="2" cy="2" r="2" transform="translate(1287.272 1450.846) rotate(45)"/><circle class="a" cx="2" cy="2" r="2" transform="translate(1217.976 1401.348) rotate(45)"/><circle class="a" cx="2" cy="2" r="2" transform="translate(1227.875 1411.248) rotate(45)"/><circle class="a" cx="2" cy="2" r="2" transform="translate(1237.775 1421.147) rotate(45)"/><circle class="a" cx="2" cy="2" r="2" transform="translate(1247.674 1431.047) rotate(45)"/><circle class="a" cx="2" cy="2" r="2" transform="translate(1257.574 1440.946) rotate(45)"/><circle class="a" cx="2" cy="2" r="2" transform="translate(1267.473 1450.846) rotate(45)"/><circle class="a" cx="2" cy="2" r="2" transform="translate(1277.373 1460.745) rotate(45)"/><circle class="a" cx="2" cy="2" r="2" transform="translate(1208.076 1411.248) rotate(45)"/><circle class="a" cx="2" cy="2" r="2" transform="translate(1217.976 1421.147) rotate(45)"/><circle class="a" cx="2" cy="2" r="2" transform="translate(1227.875 1431.047) rotate(45)"/><circle class="a" cx="2" cy="2" r="2" transform="translate(1237.775 1440.946) rotate(45)"/><circle class="a" cx="2" cy="2" r="2" transform="translate(1247.674 1450.846) rotate(45)"/><circle class="a" cx="2" cy="2" r="2" transform="translate(1257.574 1460.745) rotate(45)"/><circle class="a" cx="2" cy="2" r="2" transform="translate(1267.473 1470.645) rotate(45)"/><circle class="a" cx="2" cy="2" r="2" transform="translate(1198.177 1421.147) rotate(45)"/><circle class="a" cx="2" cy="2" r="2" transform="translate(1208.076 1431.047) rotate(45)"/><circle class="a" cx="2" cy="2" r="2" transform="translate(1217.976 1440.946) rotate(45)"/><circle class="a" cx="2" cy="2" r="2" transform="translate(1227.875 1450.846) rotate(45)"/><circle class="a" cx="2" cy="2" r="2" transform="translate(1237.775 1460.745) rotate(45)"/><circle class="a" cx="2" cy="2" r="2" transform="translate(1247.674 1470.645) rotate(45)"/><circle class="a" cx="2" cy="2" r="2" transform="translate(1257.574 1480.544) rotate(45)"/><circle class="a" cx="2" cy="2" r="2" transform="translate(1188.277 1431.047) rotate(45)"/><circle class="a" cx="2" cy="2" r="2" transform="translate(1198.177 1440.946) rotate(45)"/><circle class="a" cx="2" cy="2" r="2" transform="translate(1208.076 1450.846) rotate(45)"/><circle class="a" cx="2" cy="2" r="2" transform="translate(1217.976 1460.745) rotate(45)"/><circle class="a" cx="2" cy="2" r="2" transform="translate(1227.875 1470.645) rotate(45)"/><circle class="a" cx="2" cy="2" r="2" transform="translate(1237.775 1480.544) rotate(45)"/><circle class="a" cx="2" cy="2" r="2" transform="translate(1247.674 1490.444) rotate(45)"/><circle class="a" cx="2" cy="2" r="2" transform="translate(1178.378 1440.946) rotate(45)"/><circle class="a" cx="2" cy="2" r="2" transform="translate(1188.277 1450.846) rotate(45)"/><circle class="a" cx="2" cy="2" r="2" transform="translate(1198.177 1460.745) rotate(45)"/><circle class="a" cx="2" cy="2" r="2" transform="translate(1208.076 1470.645) rotate(45)"/><circle class="a" cx="2" cy="2" r="2" transform="translate(1217.976 1480.544) rotate(45)"/><circle class="a" cx="2" cy="2" r="2" transform="translate(1227.875 1490.444) rotate(45)"/><circle class="a" cx="2" cy="2" r="2" transform="translate(1237.775 1500.343) rotate(45)"/></g></svg>