<svg xmlns="http://www.w3.org/2000/svg" width="121" height="121" viewBox="0 0 121 121"><defs><style>.a{fill:#09c5e6;}</style></defs><g transform="translate(-143 -836)"><circle class="a" cx="2.5" cy="2.5" r="2.5" transform="translate(143 836)"/><ellipse class="a" cx="3" cy="2.5" rx="3" ry="2.5" transform="translate(162 836)"/><ellipse class="a" cx="3" cy="2.5" rx="3" ry="2.5" transform="translate(181 836)"/><circle class="a" cx="2.5" cy="2.5" r="2.5" transform="translate(201 836)"/><circle class="a" cx="2.5" cy="2.5" r="2.5" transform="translate(220 836)"/><ellipse class="a" cx="3" cy="2.5" rx="3" ry="2.5" transform="translate(239 836)"/><ellipse class="a" cx="3" cy="2.5" rx="3" ry="2.5" transform="translate(258 836)"/><ellipse class="a" cx="2.5" cy="3" rx="2.5" ry="3" transform="translate(143 855)"/><circle class="a" cx="3" cy="3" r="3" transform="translate(162 855)"/><circle class="a" cx="3" cy="3" r="3" transform="translate(181 855)"/><ellipse class="a" cx="2.5" cy="3" rx="2.5" ry="3" transform="translate(201 855)"/><ellipse class="a" cx="2.5" cy="3" rx="2.5" ry="3" transform="translate(220 855)"/><circle class="a" cx="3" cy="3" r="3" transform="translate(239 855)"/><circle class="a" cx="3" cy="3" r="3" transform="translate(258 855)"/><ellipse class="a" cx="2.5" cy="3" rx="2.5" ry="3" transform="translate(143 874)"/><circle class="a" cx="3" cy="3" r="3" transform="translate(162 874)"/><circle class="a" cx="3" cy="3" r="3" transform="translate(181 874)"/><ellipse class="a" cx="2.5" cy="3" rx="2.5" ry="3" transform="translate(201 874)"/><ellipse class="a" cx="2.5" cy="3" rx="2.5" ry="3" transform="translate(220 874)"/><circle class="a" cx="3" cy="3" r="3" transform="translate(239 874)"/><circle class="a" cx="3" cy="3" r="3" transform="translate(258 874)"/><circle class="a" cx="2.5" cy="2.5" r="2.5" transform="translate(143 894)"/><ellipse class="a" cx="3" cy="2.5" rx="3" ry="2.5" transform="translate(162 894)"/><ellipse class="a" cx="3" cy="2.5" rx="3" ry="2.5" transform="translate(181 894)"/><circle class="a" cx="2.5" cy="2.5" r="2.5" transform="translate(201 894)"/><circle class="a" cx="2.5" cy="2.5" r="2.5" transform="translate(220 894)"/><ellipse class="a" cx="3" cy="2.5" rx="3" ry="2.5" transform="translate(239 894)"/><ellipse class="a" cx="3" cy="2.5" rx="3" ry="2.5" transform="translate(258 894)"/><circle class="a" cx="2.5" cy="2.5" r="2.5" transform="translate(143 913)"/><ellipse class="a" cx="3" cy="2.5" rx="3" ry="2.5" transform="translate(162 913)"/><ellipse class="a" cx="3" cy="2.5" rx="3" ry="2.5" transform="translate(181 913)"/><circle class="a" cx="2.5" cy="2.5" r="2.5" transform="translate(201 913)"/><circle class="a" cx="2.5" cy="2.5" r="2.5" transform="translate(220 913)"/><ellipse class="a" cx="3" cy="2.5" rx="3" ry="2.5" transform="translate(239 913)"/><ellipse class="a" cx="3" cy="2.5" rx="3" ry="2.5" transform="translate(258 913)"/><ellipse class="a" cx="2.5" cy="3" rx="2.5" ry="3" transform="translate(143 932)"/><circle class="a" cx="3" cy="3" r="3" transform="translate(162 932)"/><circle class="a" cx="3" cy="3" r="3" transform="translate(181 932)"/><ellipse class="a" cx="2.5" cy="3" rx="2.5" ry="3" transform="translate(201 932)"/><ellipse class="a" cx="2.5" cy="3" rx="2.5" ry="3" transform="translate(220 932)"/><circle class="a" cx="3" cy="3" r="3" transform="translate(239 932)"/><circle class="a" cx="3" cy="3" r="3" transform="translate(258 932)"/><ellipse class="a" cx="2.5" cy="3" rx="2.5" ry="3" transform="translate(143 951)"/><circle class="a" cx="3" cy="3" r="3" transform="translate(162 951)"/><circle class="a" cx="3" cy="3" r="3" transform="translate(181 951)"/><ellipse class="a" cx="2.5" cy="3" rx="2.5" ry="3" transform="translate(201 951)"/><ellipse class="a" cx="2.5" cy="3" rx="2.5" ry="3" transform="translate(220 951)"/><circle class="a" cx="3" cy="3" r="3" transform="translate(239 951)"/><circle class="a" cx="3" cy="3" r="3" transform="translate(258 951)"/></g></svg>