<svg xmlns="http://www.w3.org/2000/svg" width="48" height="48" viewBox="0 0 48 48"><defs><style>.a{fill:#e2edfd;}.b,.d{fill:#fff;}.b{opacity:0;}.c{fill:#1374f8;}</style></defs><g transform="translate(-645 -1377)"><path class="a" d="M24,0C42.783,0,48,5.484,48,24S42.783,48,24,48,0,42.516,0,24,5.217,0,24,0Z" transform="translate(645 1377)"/><g transform="translate(501.016 1215.313)"><rect class="b" width="27" height="27" transform="translate(154.984 171.687)"/><g transform="translate(156.344 172.859)"><circle class="c" cx="12.5" cy="12.5" r="12.5" transform="translate(-0.359 -0.172)"/><path class="d" d="M32.1,33.218a.789.789,0,0,1,.76-.972h1.868a.79.79,0,0,1,.762.972l-.819,7.162a.878.878,0,0,1-1.753,0Z" transform="translate(-21.64 -27.175)"/><path class="d" d="M33.993,38.09A2.042,2.042,0,0,1,36.1,40.152V40.2a2.111,2.111,0,0,1-4.221,0v-.048A2.04,2.04,0,0,1,33.993,38.09Z" transform="translate(-21.834 -21.882)"/></g></g></g></svg>