<svg xmlns="http://www.w3.org/2000/svg" width="48" height="48" viewBox="0 0 48 48"><defs><style>.a{fill:#e2edfd;}.b,.d{fill:none;}.c{fill:#fff;}.d{stroke:#1374f8;}.e,.g{fill:#1374f8;}.f,.g{stroke:none;}</style></defs><g transform="translate(-645 -1301)"><path class="a" d="M24,0C42.783,0,48,5.484,48,24S42.783,48,24,48,0,42.516,0,24,5.217,0,24,0Z" transform="translate(645 1301)"/><g transform="translate(-5.268 -1169.5)"><g class="b" transform="translate(664.617 2483.816)"><path class="f" d="M7.733,25.8a2,2,0,0,1-2-2V19.1a10.033,10.033,0,1,1,8.6,0v4.7a2,2,0,0,1-2,2Z"/><path class="g" d="M 12.33340072631836 23.79960060119629 L 12.33340072631836 19.10077095031738 L 12.33340072631836 17.836669921875 L 13.47521018981934 17.29425048828125 C 14.82919025421143 16.65104103088379 15.97552013397217 15.64332008361816 16.79026985168457 14.38004016876221 C 17.62512016296387 13.08559989929199 18.0664005279541 11.58248043060303 18.0664005279541 10.03320026397705 C 18.0664005279541 5.60368013381958 14.46271991729736 2.000000238418579 10.03320026397705 2.000000238418579 C 5.60368013381958 2.000000238418579 2.000000238418579 5.60368013381958 2.000000238418579 10.03320026397705 C 2.000000238418579 11.58248043060303 2.441280364990234 13.08559989929199 3.276130199432373 14.38004970550537 C 4.090880393981934 15.64333057403564 5.237210273742676 16.65104103088379 6.591190338134766 17.29425048828125 L 7.7330002784729 17.836669921875 L 7.7330002784729 19.10077095031738 L 7.732800483703613 23.79940032958984 L 12.33270072937012 23.79940032958984 L 12.33340072631836 23.79960060119629 M 12.33270072937012 25.79940032958984 L 7.732800483703613 25.79940032958984 C 6.628500461578369 25.79940032958984 5.7330002784729 24.90390014648438 5.7330002784729 23.79960060119629 L 5.7330002784729 19.10077095031738 C 2.343330144882202 17.49051094055176 2.639770571022382e-07 14.03563022613525 2.639770571022382e-07 10.03320026397705 C 2.639770571022382e-07 4.491899967193604 4.491900444030762 1.647949261496251e-07 10.03320026397705 1.647949261496251e-07 C 15.57450008392334 1.647949261496251e-07 20.0664005279541 4.491899967193604 20.0664005279541 10.03320026397705 C 20.0664005279541 14.03563022613525 17.72307014465332 17.49049949645996 14.33340072631836 19.10077095031738 L 14.33340072631836 23.79960060119629 C 14.33340072631836 24.90390014648438 13.43790054321289 25.79940032958984 12.33270072937012 25.79940032958984 Z"/></g><g class="c" transform="translate(673.217 2508.477)"><path class="f" d="M 1.433306574821472 2.071938991546631 C 0.938370943069458 2.071938991546631 0.5321849584579468 1.684717774391174 0.5018208622932434 1.197299599647522 C 0.5538036823272705 1.206100583076477 0.6111799478530884 1.217246174812317 0.6676566004753113 1.228219032287598 C 0.8794465661048889 1.269348978996277 1.14302659034729 1.320549011230469 1.433306574821472 1.320549011230469 C 1.723546624183655 1.320549011230469 1.987136602401733 1.269348978996277 2.198926687240601 1.228219032287598 C 2.255415201187134 1.217244744300842 2.312799453735352 1.206098437309265 2.364792585372925 1.197296738624573 C 2.334428310394287 1.684715032577515 1.928242206573486 2.071938991546631 1.433306574821472 2.071938991546631 Z"/><path class="g" d="M 0.3526570796966553 0.6800596714019775 C 0.6154162883758545 0.6800596714019775 1.002096772193909 0.8205490112304688 1.433306574821472 0.8205490112304688 C 1.864467978477478 0.8205490112304688 2.251198291778564 0.6800711154937744 2.513956069946289 0.6800596714019775 C 2.733607769012451 0.6800503730773926 2.866616487503052 0.7782003879547119 2.866616487503052 1.138628959655762 C 2.866616487503052 1.93022894859314 2.224896430969238 2.571938991546631 1.433306574821472 2.571938991546631 C 0.641716480255127 2.571938991546631 -3.337860107421875e-06 1.93022894859314 -3.337860107421875e-06 1.138628959655762 C -3.337860107421875e-06 0.7782487869262695 0.1330580711364746 0.6800596714019775 0.3526570796966553 0.6800596714019775 Z"/></g><line class="d" y2="5.733" transform="translate(674.65 2474.5)"/><line class="d" y2="5.733" transform="translate(691.466 2484.533) rotate(60)"/><line class="d" y1="5.733" transform="translate(664.233 2487.4) rotate(120)"/><rect class="e" width="5.733" height="2.867" transform="translate(671.784 2501.016)"/></g></g></svg>