<svg xmlns="http://www.w3.org/2000/svg" width="48" height="48" viewBox="0 0 48 48"><defs><style>.a{fill:#e2edfd;}.b{fill:#1374f8;}</style></defs><g transform="translate(-645 -1149)"><path class="a" d="M24,0C42.783,0,48,5.484,48,24S42.783,48,24,48,0,42.516,0,24,5.217,0,24,0Z" transform="translate(645 1149)"/><path class="b" d="M27.143,83.018l-2.818,2.818a19.536,19.536,0,0,1-8.351-8.351l2.818-2.818a1.4,1.4,0,0,0,.3-1.511,16.621,16.621,0,0,1-1.081-4.768,1.372,1.372,0,0,0-1.383-1.24H12.44a1.384,1.384,0,0,0-1.389,1.513,23.662,23.662,0,0,0,22.1,22.1,1.381,1.381,0,0,0,1.513-1.386V85.179a1.366,1.366,0,0,0-1.24-1.376,16.587,16.587,0,0,1-4.768-1.083A1.4,1.4,0,0,0,27.143,83.018Z" transform="translate(646.414 1094.315)"/></g></svg>