<svg xmlns="http://www.w3.org/2000/svg" width="48" height="48" viewBox="0 0 48 48"><defs><style>.a{fill:#fff;}.b{fill:#04d6ae;}</style></defs><g transform="translate(-645 -987)"><path class="a" d="M24,0C42.783,0,48,5.484,48,24S42.783,48,24,48,0,42.516,0,24,5.217,0,24,0Z" transform="translate(645 987)"/><g transform="translate(749.055 916.667)"><path class="b" d="M-73.556,87.333h-13a2.5,2.5,0,0,0-2.5,2.5v.381a1.5,1.5,0,0,0,.929,1.387l8.071,3.322,8.07-3.322a1.5,1.5,0,0,0,.929-1.387v-.381A2.5,2.5,0,0,0-73.556,87.333Z"/><path class="b" d="M-80.056,96l-8.451-3.479a2.5,2.5,0,0,1-.548-.317v7.625a2.5,2.5,0,0,0,2.5,2.5h13a2.5,2.5,0,0,0,2.5-2.5V92.208a2.5,2.5,0,0,1-.548.317Z"/></g></g></svg>