<svg xmlns="http://www.w3.org/2000/svg" width="123" height="123" viewBox="0 0 123 123"><defs><style>.a{fill:#09c5e6;}.b,.c,.e,.g,.i{fill:#fff;}.d{fill:#ccf3fa;}.e{stroke:#72def1;}.f{fill:#72def1;}.g{stroke:#ccf3fa;}.h,.i{stroke:none;}.j{fill:none;}</style></defs><path class="a" d="M61.5,0C109.63,0,123,14.054,123,61.5S109.63,123,61.5,123,0,108.946,0,61.5,13.37,0,61.5,0Z" transform="translate(0)"/><g class="b" transform="translate(563 1257)"><path class="h" d="M -477 -1175.50048828125 L -528.0003051757812 -1175.50048828125 C -529.9299926757812 -1175.50048828125 -531.4999389648438 -1177.0703125 -531.4999389648438 -1179 L -531.4999389648438 -1216.999877929688 C -531.4999389648438 -1218.930053710938 -529.9299926757812 -1220.500366210938 -528.0003051757812 -1220.500366210938 L -477 -1220.500366210938 C -475.0703125 -1220.500366210938 -473.5003967285156 -1218.930053710938 -473.5003967285156 -1216.999877929688 L -473.5003967285156 -1179 C -473.5003967285156 -1177.0703125 -475.0703125 -1175.50048828125 -477 -1175.50048828125 Z M -528.0003051757812 -1219.499633789062 C -529.3787231445312 -1219.499633789062 -530.5001220703125 -1218.378295898438 -530.5001220703125 -1216.999877929688 L -530.5001220703125 -1179 C -530.5001220703125 -1177.62158203125 -529.3787231445312 -1176.500244140625 -528.0003051757812 -1176.500244140625 L -477 -1176.500244140625 C -475.6216125488281 -1176.500244140625 -474.5002136230469 -1177.62158203125 -474.5002136230469 -1179 L -474.5002136230469 -1216.999877929688 C -474.5002136230469 -1218.378295898438 -475.6216125488281 -1219.499633789062 -477 -1219.499633789062 L -528.0003051757812 -1219.499633789062 Z"/><path class="i" d="M -474.3085021972656 -1218.323852539062 C -474.79833984375 -1219.316284179688 -475.82080078125 -1220.000366210938 -477 -1220.000366210938 L -528.0003051757812 -1220.000366210938 C -529.1668090820312 -1220.000366210938 -530.179931640625 -1219.330932617188 -530.67578125 -1218.355834960938 C -530.1798095703125 -1219.33056640625 -529.1668090820312 -1219.999633789062 -528.0003051757812 -1219.999633789062 L -477 -1219.999633789062 C -475.8208312988281 -1219.999633789062 -474.7984313964844 -1219.315795898438 -474.3085021972656 -1218.323852539062 M -477 -1175.00048828125 L -528.0003051757812 -1175.00048828125 C -530.2057495117188 -1175.00048828125 -531.9999389648438 -1176.794677734375 -531.9999389648438 -1179 L -531.9999389648438 -1216.999877929688 C -531.9999389648438 -1219.205810546875 -530.2057495117188 -1221.000366210938 -528.0003051757812 -1221.000366210938 L -477 -1221.000366210938 C -474.7946166992188 -1221.000366210938 -473.0003967285156 -1219.205810546875 -473.0003967285156 -1216.999877929688 L -473.0003967285156 -1179 C -473.0003967285156 -1176.794677734375 -474.7946166992188 -1175.00048828125 -477 -1175.00048828125 Z M -528.0003051757812 -1218.999633789062 C -529.1029663085938 -1218.999633789062 -530.0001220703125 -1218.1025390625 -530.0001220703125 -1216.999877929688 L -530.0001220703125 -1179 C -530.0001220703125 -1177.897338867188 -529.1029663085938 -1177.000244140625 -528.0003051757812 -1177.000244140625 L -477 -1177.000244140625 C -475.8973083496094 -1177.000244140625 -475.0002136230469 -1177.897338867188 -475.0002136230469 -1179 L -475.0002136230469 -1216.999877929688 C -475.0002136230469 -1218.1025390625 -475.8973083496094 -1218.999633789062 -477 -1218.999633789062 L -528.0003051757812 -1218.999633789062 Z"/></g><path class="c" d="M-469-1216h-60a3,3,0,0,1-3-3v-1h27a1.99,1.99,0,0,0,.587,1.414A1.986,1.986,0,0,0-503-1218h9a2,2,0,0,0,2-2h26v1A3,3,0,0,1-469-1216Z" transform="translate(559 1302)"/><g transform="translate(-24 2)"><path class="a" d="M11,26H3a3,3,0,0,1-3-3V3A3,3,0,0,1,3,0h8a3,3,0,0,1,3,3V23A3,3,0,0,1,11,26ZM5.045,23.739a.565.565,0,0,0,0,1.13H9.515a.565.565,0,0,0,0-1.13ZM3.12,1.13a2,2,0,0,0-2,2V21.173a2,2,0,0,0,2,2h7.76a2,2,0,0,0,2-2V3.13a2,2,0,0,0-2-2Z" transform="translate(106 58)"/><rect class="d" width="12" height="22" rx="2" transform="translate(107 59)"/></g><g class="e" transform="translate(82 60)"><rect class="h" width="14" height="26" rx="2"/><rect class="j" x="-0.5" y="-0.5" width="15" height="27" rx="2.5"/></g><rect class="f" width="12" height="20" rx="1" transform="translate(83 63)"/><g class="g" transform="translate(88.5 61)"><circle class="h" cx="0.5" cy="0.5" r="0.5"/><circle class="j" cx="0.5" cy="0.5"/></g></svg>