<svg xmlns="http://www.w3.org/2000/svg" width="123" height="123" viewBox="0 0 123 123"><defs><style>.a{fill:#9f25f8;}.b,.d{fill:none;}.b{stroke:#fff;stroke-width:4px;}.c{stroke:none;}</style></defs><path class="a" d="M61.5,0C109.63,0,123,14.054,123,61.5S109.63,123,61.5,123,0,108.946,0,61.5,13.37,0,61.5,0Z" transform="translate(0)"/><g class="b" transform="translate(29 33)"><ellipse class="c" cx="7.5" cy="8" rx="7.5" ry="8"/><ellipse class="d" cx="7.5" cy="8" rx="5.5" ry="6"/></g><g class="b" transform="translate(77 85)"><ellipse class="c" cx="11" cy="11.5" rx="11" ry="11.5"/><ellipse class="d" cx="11" cy="11.5" rx="9" ry="9.5"/></g><path class="b" d="M74.373,78.395C68.9,73.517,50.116,52.913,52.463,38.323s26.652-8.468,18.825,6.122S48.368,66.723,37.377,67.691s2.9-19.538,1.889-28.805S33.33,30.62,33.33,30.62" transform="translate(8.103 12.9)"/></svg>