<svg xmlns="http://www.w3.org/2000/svg" width="38.318" height="40" viewBox="0 0 38.318 40"><defs><style>.a{fill:#fff;}</style></defs><g transform="translate(-75.975 -68.078)"><path class="a" d="M112.476,90.961a2.606,2.606,0,0,0-2.671.668l-2.431-.784a12.293,12.293,0,0,0,0-5.534l2.433-.792a2.613,2.613,0,1,0-.713-2.192l-2.427.79a12.549,12.549,0,0,0-3.259-4.47l1.5-2.063a2.614,2.614,0,1,0-1.865-1.355L101.54,77.3a12.442,12.442,0,0,0-5.253-1.713V73.035a2.613,2.613,0,1,0-2.305,0V75.59A12.442,12.442,0,0,0,88.729,77.3l-1.507-2.074a2.615,2.615,0,1,0-1.867,1.355l1.509,2.075a12.549,12.549,0,0,0-3.259,4.47l-2.427-.8a2.615,2.615,0,1,0-.713,2.192l2.435.788a12.233,12.233,0,0,0,0,5.526l-2.435.792a2.612,2.612,0,1,0,.713,2.191l2.427-.789a12.549,12.549,0,0,0,3.259,4.47l-1.509,2.071a2.612,2.612,0,1,0,1.867,1.355l1.507-2.074a12.442,12.442,0,0,0,5.253,1.713v2.554a2.613,2.613,0,1,0,2.305,0v-2.554a12.442,12.442,0,0,0,5.253-1.713l1.507,2.074a2.614,2.614,0,1,0,1.865-1.355L103.4,97.5a12.549,12.549,0,0,0,3.259-4.47l2.427.788a2.611,2.611,0,1,0,3.384-2.86ZM96.894,81.489a1.769,1.769,0,1,1,.649,2.416h0a1.769,1.769,0,0,1-.651-2.415Zm-5.932-.648a1.769,1.769,0,1,1-.647,2.417h0a1.768,1.768,0,0,1,.647-2.417Zm-2.405,9a1.77,1.77,0,1,1,1.77-1.761h0a1.771,1.771,0,0,1-1.769,1.772h0Zm4.822,4.815a1.769,1.769,0,1,1-.65-2.416h0a1.769,1.769,0,0,1,.65,2.42Zm.872-5.05a1.77,1.77,0,1,1,2.419-.648,1.77,1.77,0,0,1-2.419.648Zm5.061,5.7a1.77,1.77,0,1,1,.647-2.417h0a1.77,1.77,0,0,1-.649,2.416Zm2.4-5.461a1.767,1.767,0,1,1,0,.007Z"/></g></svg>