<svg xmlns="http://www.w3.org/2000/svg" width="15.327" height="16" viewBox="0 0 15.327 16"><defs><style>.a{fill:#1b3141;}</style></defs><path class="a" d="M90.575,77.231a1.043,1.043,0,0,0-1.069.267l-.972-.314a4.917,4.917,0,0,0,0-2.214l.973-.317a1.045,1.045,0,1,0-.285-.877l-.971.316a5.02,5.02,0,0,0-1.3-1.788l.6-.825a1.046,1.046,0,1,0-.746-.542l-.6.83a4.977,4.977,0,0,0-2.1-.685V70.061a1.045,1.045,0,1,0-.922,0v1.022a4.977,4.977,0,0,0-2.1.685l-.6-.83a1.046,1.046,0,1,0-.747.542l.6.83a5.02,5.02,0,0,0-1.3,1.788l-.971-.319a1.046,1.046,0,1,0-.285.877l.974.315a4.893,4.893,0,0,0,0,2.21l-.974.317a1.045,1.045,0,1,0,.285.877l.971-.315a5.02,5.02,0,0,0,1.3,1.788l-.6.828a1.045,1.045,0,1,0,.747.542l.6-.83a4.977,4.977,0,0,0,2.1.685v1.022a1.045,1.045,0,1,0,.922,0V81.073a4.977,4.977,0,0,0,2.1-.685l.6.83a1.046,1.046,0,1,0,.746-.542l-.6-.83a5.019,5.019,0,0,0,1.3-1.788l.971.315a1.044,1.044,0,1,0,1.354-1.144Zm-6.233-3.789a.708.708,0,1,1,.26.966h0a.708.708,0,0,1-.261-.966Zm-2.373-.259a.708.708,0,1,1-.259.967h0a.707.707,0,0,1,.259-.967Zm-.962,3.6a.708.708,0,1,1,.708-.7h0a.708.708,0,0,1-.708.709h0Zm1.929,1.926a.708.708,0,1,1-.26-.966h0a.708.708,0,0,1,.26.968Zm.349-2.02a.708.708,0,1,1,.968-.259.708.708,0,0,1-.968.259Zm2.024,2.279A.708.708,0,1,1,85.568,78h0a.708.708,0,0,1-.26.966Zm.962-2.184a.708.708,0,1,1,.708-.705.708.708,0,0,1-.708.705Z" transform="translate(-75.975 -68.078)"/></svg>